<?xml version="1.0" encoding="UTF-8"?>
<svg id="Layer_2" data-name="Layer 2" xmlns="http://www.w3.org/2000/svg" xmlns:xlink="http://www.w3.org/1999/xlink" viewBox="0 0 107.51 46.1">
  <defs>
    <style>
      .cls-1 {
        clip-path: url(#clippath-2);
      }

      .cls-2 {
        fill: #f4e619;
      }

      .cls-3 {
        fill: #276db4;
      }

      .cls-4 {
        clip-path: url(#clippath-1);
      }

      .cls-5 {
        clip-path: url(#clippath);
      }

      .cls-6 {
        fill: none;
      }
    </style>
    <clipPath id="clippath">
      <circle class="cls-6" cx="52.34" cy="25.63" r="20.47"/>
    </clipPath>
    <clipPath id="clippath-1">
      <circle class="cls-6" cx="20.47" cy="25.63" r="20.47"/>
    </clipPath>
    <clipPath id="clippath-2">
      <circle class="cls-6" cx="87.04" cy="25.63" r="20.47"/>
    </clipPath>
  </defs>
  <g id="Layer_2-2" data-name="Layer 2">
    <g>
      <circle class="cls-3" cx="20.47" cy="25.63" r="20.47"/>
      <circle class="cls-3" cx="52.34" cy="25.63" r="20.47"/>
      <g class="cls-5">
        <path class="cls-2" d="m53.45,15.72c-5.39,0-9.48,4.24-9.48,9.83s4.09,9.93,9.48,9.93c2.89,0,6.24-1.6,8.68-4.09l5.34,5.74c-3.74,3.94-9.33,6.49-14.52,6.49-10.53,0-18.37-7.69-18.37-17.97S42.62,7.98,53.3,7.98c5.19,0,10.63,2.3,14.12,5.99l-5.29,6.34c-2.3-2.79-5.64-4.59-8.68-4.59Z"/>
      </g>
      <g class="cls-4">
        <path class="cls-2" d="m18.96,7.77v27.2h14.82v7.79H9.83V7.77h9.13Z"/>
      </g>
      <circle class="cls-3" cx="87.04" cy="25.63" r="20.47"/>
      <g class="cls-1">
        <path class="cls-2" d="m93.37,42.76l-5.09-9.68h-6.79v9.68h-9.13V7.77h15.72c9.28,0,14.57,4.49,14.57,12.28,0,5.29-2.2,9.18-6.24,11.28l7.29,11.43h-10.33Zm-11.88-16.97h6.64c3.69,0,5.84-1.9,5.84-5.44s-2.15-5.29-5.84-5.29h-6.64v10.73Z"/>
      </g>
      <path class="cls-2" d="m105.69.83c-.12.3-.53.67-1.25,1.09-.72.43-1.29.64-1.7.64-.26,0-.51-.03-.76-.1-.26-.07-.58-.2-.97-.38-.63-.23-1.04-.37-1.23-.42-.2-.05-.5-.07-.92-.07-.3,0-.74.14-1.32.42-.58.28-1.16.57-1.74.87-.07.02-.12,0-.14-.05-.02-.06,0-.12.07-.19.9-.9,1.59-1.53,2.05-1.88.7-.51,1.31-.76,1.84-.76.44,0,1.11.19,2.02.56.49.23.9.4,1.25.5s.68.16,1.01.16c.49-.16.98-.34,1.49-.52.09.05.2.09.31.14h0Z"/>
    </g>
  </g>
</svg>