<?xml version="1.0" encoding="utf-8"?>
<svg version="1.1" id="Layer_2_00000166671746399845081120000003692040636552299702_"
	 xmlns="http://www.w3.org/2000/svg" xmlns:xlink="http://www.w3.org/1999/xlink" x="0px" y="0px" viewBox="0 0 161.8 32"
	 style="enable-background:new 0 0 161.8 32;" xml:space="preserve">
<style type="text/css">
	.st0{fill:#0038a7;}
	.st1{clip-path:url(#SVGID_00000075843570043231511280000004241518236066241193_);}
	.st2{fill:#F4E619;}
	.st3{clip-path:url(#SVGID_00000041261387558865359070000008347532067963757241_);}
	.st4{clip-path:url(#SVGID_00000078764670223811105730000003810738523890718136_);}
</style>
<g id="Layer_1-2">
	<g>
		<g>
			<circle class="st0" cx="14.2" cy="17.8" r="14.2"/>
			<circle class="st0" cx="36.3" cy="17.8" r="14.2"/>
			<g>
				<defs>
					<circle id="SVGID_1_" cx="36.3" cy="17.8" r="14.2"/>
				</defs>
				<clipPath id="SVGID_00000153697829290988797070000017088481075252201871_">
					<use xlink:href="#SVGID_1_"  style="overflow:visible;"/>
				</clipPath>
				<g style="clip-path:url(#SVGID_00000153697829290988797070000017088481075252201871_);">
					<path class="st2" d="M37.1,10.9c-3.7,0-6.6,2.9-6.6,6.8s2.8,6.9,6.6,6.9c2,0,4.3-1.1,6-2.8l3.7,4c-2.6,2.7-6.5,4.5-10.1,4.5
						c-7.3,0-12.8-5.3-12.8-12.5S29.6,5.5,37,5.5c3.6,0,7.4,1.6,9.8,4.2l-3.7,4.4C41.5,12.2,39.2,10.9,37.1,10.9z"/>
				</g>
			</g>
			<g>
				<defs>
					<circle id="SVGID_00000153683718089895667730000016873338899818475433_" cx="14.2" cy="17.8" r="14.2"/>
				</defs>
				<clipPath id="SVGID_00000183216062157025510420000013646913583857190287_">
					<use xlink:href="#SVGID_00000153683718089895667730000016873338899818475433_"  style="overflow:visible;"/>
				</clipPath>
				<g style="clip-path:url(#SVGID_00000183216062157025510420000013646913583857190287_);">
					<path class="st2" d="M13.2,5.4v18.9h10.3v5.4H6.8V5.4H13.2z"/>
				</g>
			</g>
			<circle class="st0" cx="60.4" cy="17.8" r="14.2"/>
			<g>
				<defs>
					<circle id="SVGID_00000118387367033188691090000013438697703732527500_" cx="60.4" cy="17.8" r="14.2"/>
				</defs>
				<clipPath id="SVGID_00000099637950976462607520000004652907794069349508_">
					<use xlink:href="#SVGID_00000118387367033188691090000013438697703732527500_"  style="overflow:visible;"/>
				</clipPath>
				<g style="clip-path:url(#SVGID_00000099637950976462607520000004652907794069349508_);">
					<path class="st2" d="M64.8,29.7L61.3,23h-4.7v6.7h-6.3V5.4h10.9c6.4,0,10.1,3.1,10.1,8.5c0,3.7-1.5,6.4-4.3,7.8l5.1,7.9H64.8z
						 M56.6,17.9h4.6c2.6,0,4.1-1.3,4.1-3.8s-1.5-3.7-4.1-3.7h-4.6C56.6,10.4,56.6,17.9,56.6,17.9z"/>
				</g>
			</g>
			<path class="st2" d="M73.4,0.6C73.3,0.8,73,1,72.5,1.3c-0.5,0.3-0.9,0.4-1.2,0.4c-0.2,0-0.4,0-0.5-0.1c-0.2,0-0.4-0.1-0.7-0.3
				c-0.4-0.2-0.7-0.3-0.9-0.3c-0.1,0-0.3,0-0.6,0c-0.2,0-0.5,0.1-0.9,0.3c-0.4,0.2-0.8,0.4-1.2,0.6c0,0-0.1,0-0.1,0c0,0,0-0.1,0-0.1
				c0.6-0.6,1.1-1.1,1.4-1.3C68.4,0.2,68.8,0,69.2,0c0.3,0,0.8,0.1,1.4,0.4c0.3,0.2,0.6,0.3,0.9,0.3c0.2,0.1,0.5,0.1,0.7,0.1
				c0.3-0.1,0.7-0.2,1-0.4C73.2,0.5,73.3,0.5,73.4,0.6L73.4,0.6z"/>
		</g>
		<g>
			<g>
				<path class="st0" d="M76.3,4.8l13.6,0.1C89.9,5,90,5,90,5l0,1.3c0,0,0,0.1-0.1,0.1l-5.6-0.1l-0.1,12.9c0,0,0,0.1-0.1,0.1l-2.2,0
					c-0.1,0-0.1,0-0.1-0.1l0.1-12.9l-5.6-0.1c-0.1,0-0.1,0-0.1-0.1L76.3,4.8C76.2,4.8,76.2,4.8,76.3,4.8z"/>
				<path class="st0" d="M96.8,9.1l2.3,0c2.1,0,3.5,0.7,4.3,1.9c0.1,0.2,0.2,0.6,0.2,1.1v1c-0.1,0.4-0.4,0.9-0.9,1.4
					c-0.8,0.7-2,1-3.6,1l-3,0c-0.1,0-0.6-0.5-1.4-1.4l0.1,0l4.2,0c1.1,0,1.8-0.3,2.1-0.8l0-1.5c0-0.4-0.4-0.7-1.1-1.1
					c-0.2-0.1-0.6-0.1-1.1-0.1l-1.9,0c-1,0-1.7,0.2-2,0.6c-0.2,0.1-0.3,0.4-0.4,1l-0.1,4.4c0.1,0.6,0.4,1,1,1.2
					c0.5,0.2,0.9,0.2,1.3,0.2l5.9,0.1c0.1,0,0.1,0,0.1,0.1l0,1.3c0,0,0,0.1-0.1,0.1L97,19.4c-1.8,0-3.2-0.6-4.2-1.7
					c-0.4-0.5-0.5-1-0.5-1.5l0-4.2c0-1,0.5-1.8,1.5-2.2C94.4,9.3,95.4,9.1,96.8,9.1L96.8,9.1z"/>
				<path class="st0" d="M106,5.1l2.2,0c0.1,0,0.1,0,0.1,0.1l-0.1,14.2c0,0,0,0.1-0.1,0.1l-2.2,0c-0.1,0-0.1,0-0.1-0.1L106,5.1
					C105.9,5.1,105.9,5.1,106,5.1z"/>
				<path class="st0" d="M110.4,17.6l2.2,0c0,0,0.1,0,0.1,0l0,1.5c0,0,0,0-0.1,0l-2.2,0c0,0-0.1,0-0.1,0L110.4,17.6
					C110.3,17.6,110.3,17.6,110.4,17.6z"/>
				<path class="st0" d="M119.4,9.3l5.9,0.1c0.1,0,0.1,0,0.1,0.1l0,2.3c0,0,0,0.1-0.1,0.1l-2.2,0c-0.1,0-0.1,0-0.1-0.1v-1l-3.5,0
					c-1,0-1.7,0.2-2,0.7c-0.1,0.2-0.1,0.4-0.1,0.8l0,3.9c0,0.8,0.3,1.4,0.8,1.6c0.3,0.3,1,0.4,2.1,0.4l5,0c0.1,0,0.1,0,0.1,0.1
					l0,1.3c0,0,0,0.1-0.1,0.1l-5.8-0.1c-1.6,0-2.9-0.6-4-1.7c-0.4-0.5-0.5-1-0.5-1.5l0-4.3c0-1.3,1-2.2,2.9-2.7
					C118.2,9.4,118.7,9.3,119.4,9.3L119.4,9.3z"/>
				<path class="st0" d="M132.2,9.4l3,0c2,0,3.4,0.7,4.1,2c0.1,0.3,0.1,0.6,0.1,0.9l0,4.5c0,1.4-1,2.3-3,2.7
					c-0.4,0.1-0.8,0.1-1.3,0.1l-3,0c-2,0-3.4-0.7-4.1-2c-0.1-0.3-0.1-0.6-0.1-0.9l0-4.5c0-1.4,1-2.3,3-2.7
					C131.3,9.5,131.7,9.4,132.2,9.4z M130.3,12.3l0,4.4c0,0.8,0.4,1.2,1.1,1.4c0.2,0.1,0.5,0.1,1,0.1l2.7,0c1,0,1.7-0.2,1.9-0.7
					c0.1-0.2,0.2-0.4,0.2-0.8l0-4.4c0-0.8-0.4-1.3-1.1-1.4c-0.2-0.1-0.5-0.1-1-0.1l-2.7,0c-1,0-1.7,0.2-2,0.7
					C130.4,11.8,130.3,12,130.3,12.3L130.3,12.3z"/>
				<path class="st0" d="M141.7,9.5l2.2,0c0.1,0,0.1,0,0.1,0.1l-0.1,10.1c0,0,0,0.1-0.1,0.1l-2.2,0c-0.1,0-0.1,0-0.1-0.1L141.7,9.5
					C141.6,9.6,141.6,9.5,141.7,9.5z M145.4,9.6l12.1,0.1c2,0,3.4,0.7,4.1,2c0.1,0.3,0.1,0.6,0.1,0.9l-0.1,7.3c0,0,0,0.1-0.1,0.1
					l-2.2,0c-0.1,0-0.1,0-0.1-0.1l0.1-7.3c0-1-0.7-1.5-2-1.5l-4.5,0l-0.1,8.8c0,0,0,0.1-0.1,0.1l-2.2,0c-0.1,0-0.1,0-0.1-0.1
					l0.1-8.8l-6.4-0.1c-0.1,0-0.1,0-0.1-0.1C144.9,10,145.4,9.6,145.4,9.6L145.4,9.6z"/>
			</g>
			<g>
				<path class="st0" d="M109.4,13.4c0,0,3,0.9,3.3,3.3"/>
				<path class="st0" d="M110.2,12.3c0,0,3,0.9,3.3,3.3"/>
				<path class="st0" d="M111.1,11.5c0,0,3,0.9,3.3,3.3"/>
			</g>
		</g>
		<g>
			<path class="st0" d="M89.7,30.8v-4.3h0.7l1.7,3.8l1.6-3.8h0.7v4.3h-0.5v-3.7l-1.7,3.7h-0.4l-1.6-3.7l0,3.7H89.7L89.7,30.8z"/>
			<path class="st0" d="M96.3,28.7h-0.4c0-0.4,0.1-0.6,0.4-0.8c0.3-0.2,0.6-0.3,1-0.3c0.4,0,0.7,0.1,0.9,0.2
				c0.3,0.2,0.4,0.4,0.4,0.8v1.7c0,0.2,0.1,0.2,0.2,0.2c0,0,0.1,0,0.1,0v0.3c-0.1,0-0.2,0-0.3,0c-0.2,0-0.3,0-0.4-0.1
				c-0.1-0.1-0.1-0.2-0.1-0.4c-0.2,0.2-0.3,0.4-0.5,0.5c-0.2,0.1-0.5,0.2-0.8,0.2c-0.3,0-0.6-0.1-0.8-0.2c-0.2-0.2-0.3-0.4-0.3-0.7
				c0-0.5,0.3-0.7,0.9-0.9c0.2,0,0.5-0.1,1-0.1c0.2,0,0.3,0,0.4-0.1c0.1-0.1,0.1-0.2,0.1-0.3c0-0.2-0.1-0.4-0.2-0.5
				C97.8,28,97.6,28,97.3,28c-0.3,0-0.5,0.1-0.7,0.2C96.4,28.2,96.4,28.4,96.3,28.7L96.3,28.7z M98.2,29.6v-0.5c0,0-0.1,0.1-0.2,0.1
				c0,0-0.1,0-0.2,0c-0.4,0.1-0.7,0.1-1.1,0.2c-0.4,0.1-0.5,0.3-0.5,0.5c0,0.2,0.1,0.3,0.2,0.5c0.2,0.1,0.3,0.2,0.5,0.2
				c0.3,0,0.6-0.1,0.9-0.3C98.1,30.2,98.2,29.9,98.2,29.6L98.2,29.6z"/>
			<path class="st0" d="M100.9,26.8v0.9h0.7V28h-0.7v2.1c0,0.1,0,0.2,0.1,0.3c0,0.1,0.1,0.1,0.3,0.1h0.4v0.3l-0.4,0
				c-0.3,0-0.5,0-0.6-0.2c-0.1-0.1-0.2-0.3-0.2-0.5V28h-0.6v-0.3h0.6v-0.9L100.9,26.8L100.9,26.8z"/>
			<path class="st0" d="M105.9,28.7h-0.4c-0.1-0.5-0.4-0.7-1-0.7c-0.4,0-0.7,0.1-0.9,0.4c-0.2,0.2-0.3,0.6-0.3,0.9s0.1,0.7,0.3,0.9
				c0.2,0.3,0.5,0.4,0.9,0.4c0.3,0,0.5-0.1,0.7-0.2c0.2-0.2,0.3-0.4,0.3-0.6h0.4c-0.1,0.4-0.2,0.7-0.5,0.9c-0.3,0.2-0.6,0.3-1,0.3
				c-0.5,0-0.9-0.2-1.2-0.5c-0.3-0.3-0.4-0.7-0.4-1.2c0-0.5,0.1-0.9,0.4-1.2c0.3-0.3,0.7-0.5,1.2-0.5c0.4,0,0.7,0.1,1,0.3
				C105.7,28.1,105.9,28.4,105.9,28.7L105.9,28.7z"/>
			<path class="st0" d="M107.3,30.8v-4.3h0.4v1.7c0.1-0.2,0.2-0.3,0.4-0.5s0.4-0.2,0.7-0.2c0.5,0,0.8,0.1,1,0.3
				c0.2,0.2,0.3,0.5,0.3,0.9v2h-0.4v-1.9c0-0.3-0.1-0.5-0.2-0.7c-0.1-0.2-0.4-0.3-0.7-0.3s-0.6,0.1-0.8,0.3
				c-0.2,0.2-0.3,0.5-0.3,0.8v1.8L107.3,30.8L107.3,30.8z"/>
			<path class="st0" d="M115.4,30.8l-1.4-3.1h0.5l1.1,2.6l1.1-2.6h0.4l-1.5,3.6c-0.1,0.3-0.2,0.5-0.4,0.5c-0.1,0.1-0.3,0.1-0.6,0.1
				c-0.2,0-0.3,0-0.3,0v-0.3c0,0,0.1,0,0.1,0c0.1,0,0.1,0,0.2,0c0.2,0,0.3,0,0.4-0.1c0.1,0,0.1-0.2,0.2-0.4L115.4,30.8L115.4,30.8z"
				/>
			<path class="st0" d="M119.7,27.6c0.5,0,0.9,0.2,1.2,0.5c0.3,0.3,0.4,0.7,0.4,1.2s-0.1,0.8-0.4,1.2c-0.3,0.3-0.7,0.5-1.2,0.5
				c-0.5,0-0.9-0.2-1.2-0.5c-0.3-0.3-0.4-0.7-0.4-1.2c0-0.5,0.1-0.9,0.4-1.2C118.8,27.8,119.2,27.6,119.7,27.6L119.7,27.6z
				 M119.7,27.9c-0.4,0-0.7,0.1-0.9,0.4c-0.2,0.2-0.3,0.6-0.3,0.9s0.1,0.7,0.3,0.9c0.2,0.3,0.5,0.4,0.9,0.4c0.4,0,0.7-0.1,0.9-0.4
				c0.2-0.2,0.3-0.5,0.3-0.9s-0.1-0.7-0.3-0.9C120.4,28.1,120.1,27.9,119.7,27.9z"/>
			<path class="st0" d="M125.6,27.7v3.1h-0.4v-0.5c-0.1,0.2-0.3,0.4-0.5,0.5c-0.2,0.1-0.5,0.2-0.7,0.2c-0.4,0-0.7-0.1-0.9-0.3
				c-0.2-0.2-0.3-0.5-0.3-0.9v-2h0.4v2c0,0.3,0.1,0.5,0.2,0.6s0.4,0.2,0.7,0.2c0.3,0,0.6-0.1,0.8-0.4c0.2-0.2,0.2-0.5,0.2-0.9v-1.6
				L125.6,27.7L125.6,27.7z"/>
			<path class="st0" d="M127.2,30.8v-3.1h0.4v0.7c0.2-0.5,0.7-0.8,1.3-0.8V28c-0.4,0-0.7,0.1-0.9,0.3c-0.2,0.2-0.4,0.5-0.4,0.8v1.7
				H127.2L127.2,30.8z"/>
			<path class="st0" d="M132.8,30.8v-4.3h0.5v4h2.7v0.3H132.8L132.8,30.8z"/>
			<path class="st0" d="M141.2,27.8h-0.5c-0.1-0.3-0.2-0.6-0.5-0.8c-0.3-0.2-0.6-0.3-0.9-0.3c-0.6,0-1,0.2-1.4,0.6
				c-0.3,0.3-0.4,0.8-0.4,1.3c0,0.5,0.1,1,0.4,1.3c0.3,0.4,0.8,0.6,1.4,0.6c0.4,0,0.8-0.1,1.1-0.4c0.3-0.3,0.4-0.6,0.5-1h0.5
				c-0.1,0.5-0.3,1-0.6,1.3c-0.4,0.3-0.8,0.5-1.4,0.5c-0.7,0-1.3-0.2-1.7-0.7c-0.4-0.4-0.6-0.9-0.6-1.6s0.2-1.1,0.6-1.6
				c0.4-0.5,1-0.7,1.7-0.7c0.5,0,0.9,0.1,1.3,0.4C140.9,27,141.1,27.4,141.2,27.8L141.2,27.8z"/>
			<path class="st0" d="M142.8,30.8v-4.3h2.2c0.4,0,0.8,0.1,1,0.3c0.3,0.2,0.4,0.5,0.4,0.9c0,0.3-0.1,0.5-0.2,0.7
				c-0.2,0.2-0.4,0.3-0.7,0.4c0.3,0,0.5,0.2,0.7,0.3c0.1,0.2,0.2,0.4,0.2,0.7c0,0.2,0,0.4,0,0.6s0.1,0.4,0.2,0.5H146
				c-0.1-0.1-0.1-0.2-0.1-0.4c0-0.2,0-0.3,0-0.3c0-0.5-0.1-0.8-0.3-1c-0.2-0.2-0.4-0.2-0.7-0.2h-1.7v1.9H142.8L142.8,30.8z
				 M143.2,26.9v1.7h1.7c0.3,0,0.5-0.1,0.7-0.2c0.2-0.2,0.3-0.4,0.3-0.6c0-0.3-0.1-0.5-0.3-0.6c-0.2-0.2-0.4-0.2-0.8-0.2L143.2,26.9
				L143.2,26.9z"/>
			<path class="st0" d="M151.3,30.8h-0.6v-0.6h0.6V30.8z M150.9,29.8l-0.1-2v-1.3h0.5v1.3l-0.1,2H150.9z"/>
		</g>
	</g>
</g>
</svg>
